<svg width="120" height="120" viewBox="0 0 120 120" fill="none" xmlns="http://www.w3.org/2000/svg">
<circle cx="60" cy="60" r="60" fill="#4972A1"/>
<path d="M44.5072 85L48.137 88.4387L39.1963 97.8761L35.5665 94.4374L44.5072 85Z" fill="white"/>
<rect x="59.9407" y="85" width="5" height="13" transform="rotate(43.4518 59.9407 85)" fill="white"/>
<rect x="74.9407" y="85" width="5" height="13" transform="rotate(43.4518 74.9407 85)" fill="white"/>
<mask id="path-5-inside-1" fill="white">
<path fill-rule="evenodd" clip-rule="evenodd" d="M69.6246 49.2524C69.6249 49.2115 69.625 49.1706 69.625 49.1296C69.625 39.6692 62.3776 32 53.4375 32C44.4974 32 37.25 39.6692 37.25 49.1296C37.25 49.1706 37.2501 49.2115 37.2504 49.2524C30.3359 50.1672 25 56.0855 25 63.25C25 71.0485 31.3219 77.3704 39.1204 77.3704H67.7546C75.5531 77.3704 81.875 71.0485 81.875 63.25C81.875 56.0855 76.5391 50.1672 69.6246 49.2524Z"/>
</mask>
<path fill-rule="evenodd" clip-rule="evenodd" d="M69.6246 49.2524C69.6249 49.2115 69.625 49.1706 69.625 49.1296C69.625 39.6692 62.3776 32 53.4375 32C44.4974 32 37.25 39.6692 37.25 49.1296C37.25 49.1706 37.2501 49.2115 37.2504 49.2524C30.3359 50.1672 25 56.0855 25 63.25C25 71.0485 31.3219 77.3704 39.1204 77.3704H67.7546C75.5531 77.3704 81.875 71.0485 81.875 63.25C81.875 56.0855 76.5391 50.1672 69.6246 49.2524Z" fill="#4972A1"/>
<path d="M69.6246 49.2524L66.6247 49.2325L66.6071 51.8793L69.2311 52.2264L69.6246 49.2524ZM37.2504 49.2524L37.6439 52.2264L40.2679 51.8793L40.2503 49.2325L37.2504 49.2524ZM66.625 49.1296C66.625 49.1639 66.6249 49.1981 66.6247 49.2325L72.6245 49.2722C72.6248 49.2248 72.625 49.1773 72.625 49.1296H66.625ZM53.4375 35C60.5631 35 66.625 41.1639 66.625 49.1296H72.625C72.625 38.1745 64.1921 29 53.4375 29V35ZM40.25 49.1296C40.25 41.1639 46.3119 35 53.4375 35V29C42.6829 29 34.25 38.1745 34.25 49.1296H40.25ZM40.2503 49.2325C40.2501 49.1982 40.25 49.1639 40.25 49.1296H34.25C34.25 49.1772 34.2502 49.2248 34.2505 49.2722L40.2503 49.2325ZM28 63.25C28 57.61 32.2014 52.9465 37.6439 52.2264L36.8569 46.2783C28.4703 47.3879 22 54.5609 22 63.25H28ZM39.1204 74.3704C32.9788 74.3704 28 69.3916 28 63.25H22C22 72.7053 29.665 80.3704 39.1204 80.3704V74.3704ZM67.7546 74.3704H39.1204V80.3704H67.7546V74.3704ZM78.875 63.25C78.875 69.3916 73.8962 74.3704 67.7546 74.3704V80.3704C77.21 80.3704 84.875 72.7053 84.875 63.25H78.875ZM69.2311 52.2264C74.6736 52.9465 78.875 57.61 78.875 63.25H84.875C84.875 54.5609 78.4047 47.3879 70.0181 46.2783L69.2311 52.2264Z" fill="white" mask="url(#path-5-inside-1)"/>
<mask id="path-7-inside-2" fill="white">
<path fill-rule="evenodd" clip-rule="evenodd" d="M82.7496 53.882C82.7499 53.8411 82.75 53.8002 82.75 53.7593C82.75 44.2988 75.5026 36.6296 66.5625 36.6296C57.6224 36.6296 50.375 44.2988 50.375 53.7593C50.375 53.8002 50.3751 53.8411 50.3754 53.882C43.4609 54.7968 38.125 60.7151 38.125 67.8796C38.125 75.6781 44.4469 82 52.2454 82H80.8796C88.6781 82 95 75.6781 95 67.8796C95 60.7151 89.6641 54.7968 82.7496 53.882Z"/>
</mask>
<path fill-rule="evenodd" clip-rule="evenodd" d="M82.7496 53.882C82.7499 53.8411 82.75 53.8002 82.75 53.7593C82.75 44.2988 75.5026 36.6296 66.5625 36.6296C57.6224 36.6296 50.375 44.2988 50.375 53.7593C50.375 53.8002 50.3751 53.8411 50.3754 53.882C43.4609 54.7968 38.125 60.7151 38.125 67.8796C38.125 75.6781 44.4469 82 52.2454 82H80.8796C88.6781 82 95 75.6781 95 67.8796C95 60.7151 89.6641 54.7968 82.7496 53.882Z" fill="#4972A1"/>
<path d="M82.7496 53.882L79.7497 53.8621L79.7321 56.5089L82.3561 56.8561L82.7496 53.882ZM50.3754 53.882L50.7689 56.8561L53.3929 56.5089L53.3753 53.8621L50.3754 53.882ZM79.75 53.7593C79.75 53.7935 79.7499 53.8278 79.7497 53.8621L85.7495 53.9019C85.7498 53.8544 85.75 53.8069 85.75 53.7593H79.75ZM66.5625 39.6296C73.6881 39.6296 79.75 45.7935 79.75 53.7593H85.75C85.75 42.8041 77.3171 33.6296 66.5625 33.6296V39.6296ZM53.375 53.7593C53.375 45.7935 59.4369 39.6296 66.5625 39.6296V33.6296C55.8079 33.6296 47.375 42.8041 47.375 53.7593H53.375ZM53.3753 53.8621C53.3751 53.8278 53.375 53.7935 53.375 53.7593H47.375C47.375 53.8069 47.3752 53.8544 47.3755 53.9019L53.3753 53.8621ZM41.125 67.8796C41.125 62.2397 45.3264 57.5762 50.7689 56.8561L49.9819 50.9079C41.5953 52.0175 35.125 59.1905 35.125 67.8796H41.125ZM52.2454 79C46.1038 79 41.125 74.0212 41.125 67.8796H35.125C35.125 77.3349 42.7901 85 52.2454 85V79ZM80.8796 79H52.2454V85H80.8796V79ZM92 67.8796C92 74.0212 87.0212 79 80.8796 79V85C90.335 85 98 77.3349 98 67.8796H92ZM82.3561 56.8561C87.7986 57.5762 92 62.2397 92 67.8796H98C98 59.1905 91.5297 52.0175 83.1431 50.9079L82.3561 56.8561Z" fill="white" mask="url(#path-7-inside-2)"/>
</svg>
