<svg width="120" height="121" viewBox="0 0 120 121" fill="none" xmlns="http://www.w3.org/2000/svg">
<circle cx="60" cy="60.098" r="60" fill="#A14F49"/>
<circle cx="60" cy="60" r="15" fill="white"/>
<rect width="5" height="10" transform="matrix(-1 0 0 1 62 83)" fill="white"/>
<rect width="5" height="10" transform="matrix(-1 0 0 1 62 27)" fill="white"/>
<rect x="82" y="62" width="5" height="10" transform="rotate(-89.8097 82 62)" fill="white"/>
<rect x="27" y="62" width="5" height="10" transform="rotate(-89.8097 27 62)" fill="white"/>
<path d="M74 81.4124L77.6545 78L84.4793 85.309L80.8248 88.7214L74 81.4124Z" fill="white"/>
<path d="M34 37.4124L37.6545 34L44.4793 41.309L40.8248 44.7214L34 37.4124Z" fill="white"/>
<rect x="40.8774" y="78" width="5" height="10" transform="rotate(43.4518 40.8774 78)" fill="white"/>
<rect x="82.8774" y="34" width="5" height="10" transform="rotate(43.4518 82.8774 34)" fill="white"/>
<circle cx="60" cy="60" r="10" fill="#A14F49"/>
</svg>
